<svg width="19" height="19" viewBox="0 0 19 19" fill="none" xmlns="http://www.w3.org/2000/svg">
<path fill-rule="evenodd" clip-rule="evenodd" d="M5.90978 0.843998C6.83841 0.801248 7.13449 0.791748 9.49999 0.791748C11.8655 0.791748 12.1616 0.80204 13.0894 0.843998C14.0172 0.885956 14.6506 1.034 15.2047 1.24854C15.785 1.46783 16.3115 1.81062 16.7469 2.25396C17.1902 2.68858 17.5322 3.21425 17.7507 3.79533C17.9661 4.3495 18.1133 4.98283 18.1561 5.90908C18.1988 6.83929 18.2083 7.13537 18.2083 9.50008C18.2083 11.8656 18.198 12.1617 18.1561 13.0903C18.1141 14.0165 17.9661 14.6499 17.7507 15.204C17.5322 15.7852 17.1897 16.3117 16.7469 16.747C16.3115 17.1903 15.785 17.5323 15.2047 17.7508C14.6506 17.9662 14.0172 18.1134 13.091 18.1562C12.1616 18.1989 11.8655 18.2084 9.49999 18.2084C7.13449 18.2084 6.83841 18.1981 5.90978 18.1562C4.98353 18.1142 4.3502 17.9662 3.79603 17.7508C3.21489 17.5323 2.68835 17.1897 2.25307 16.747C1.81004 16.3121 1.4672 15.7858 1.24845 15.2048C1.03391 14.6507 0.886656 14.0173 0.843906 13.0911C0.801156 12.1609 0.791656 11.8648 0.791656 9.50008C0.791656 7.13458 0.801948 6.8385 0.843906 5.91066C0.885865 4.98283 1.03391 4.3495 1.24845 3.79533C1.46752 3.21431 1.81063 2.68804 2.25386 2.25316C2.68852 1.81023 3.21453 1.46739 3.79524 1.24854C4.34941 1.034 4.98274 0.886748 5.90899 0.843998H5.90978ZM13.0189 2.4115C12.1006 2.36954 11.8251 2.36083 9.49999 2.36083C7.17486 2.36083 6.89936 2.36954 5.98103 2.4115C5.13157 2.45029 4.67082 2.592 4.36366 2.71154C3.95753 2.86987 3.66699 3.0575 3.3622 3.36229C3.07328 3.64337 2.85092 3.98555 2.71145 4.36375C2.59191 4.67091 2.4502 5.13166 2.41141 5.98112C2.36945 6.89946 2.36074 7.17496 2.36074 9.50008C2.36074 11.8252 2.36945 12.1007 2.41141 13.019C2.4502 13.8685 2.59191 14.3292 2.71145 14.6364C2.85078 15.014 3.07324 15.3568 3.3622 15.6379C3.64324 15.9268 3.98603 16.1493 4.36366 16.2886C4.67082 16.4082 5.13157 16.5499 5.98103 16.5887C6.89936 16.6306 7.17407 16.6393 9.49999 16.6393C11.8259 16.6393 12.1006 16.6306 13.0189 16.5887C13.8684 16.5499 14.3292 16.4082 14.6363 16.2886C15.0424 16.1303 15.333 15.9427 15.6378 15.6379C15.9267 15.3568 16.1492 15.014 16.2885 14.6364C16.4081 14.3292 16.5498 13.8685 16.5886 13.019C16.6305 12.1007 16.6392 11.8252 16.6392 9.50008C16.6392 7.17496 16.6305 6.89946 16.5886 5.98112C16.5498 5.13166 16.4081 4.67091 16.2885 4.36375C16.1302 3.95762 15.9426 3.66708 15.6378 3.36229C15.3567 3.07339 15.0145 2.85104 14.6363 2.71154C14.3292 2.592 13.8684 2.45029 13.0189 2.4115ZM8.3877 12.1846C9.00889 12.4432 9.70058 12.4781 10.3446 12.2834C10.9887 12.0886 11.5452 11.6763 11.919 11.1169C12.2929 10.5574 12.4609 9.88552 12.3944 9.21596C12.3279 8.54639 12.031 7.92068 11.5544 7.44571C11.2506 7.14208 10.8832 6.9096 10.4788 6.76499C10.0743 6.62038 9.64283 6.56724 9.21538 6.6094C8.78793 6.65156 8.37515 6.78797 8.00675 7.00881C7.63835 7.22965 7.3235 7.52942 7.08485 7.88655C6.84621 8.24367 6.68972 8.64927 6.62665 9.07413C6.56357 9.499 6.59548 9.93256 6.72008 10.3436C6.84468 10.7547 7.05887 11.133 7.34723 11.4513C7.63558 11.7697 7.99093 12.0201 8.3877 12.1846ZM6.33491 6.335C6.75055 5.91935 7.24399 5.58965 7.78706 5.3647C8.33012 5.13976 8.91218 5.02398 9.49999 5.02398C10.0878 5.02398 10.6699 5.13975 11.2129 5.3647C11.756 5.58965 12.2494 5.91935 12.6651 6.335C13.0807 6.75064 13.4104 7.24408 13.6354 7.78715C13.8603 8.33022 13.9761 8.91227 13.9761 9.50008C13.9761 10.0879 13.8603 10.6699 13.6354 11.213C13.4104 11.7561 13.0807 12.2495 12.6651 12.6652C11.8256 13.5046 10.6871 13.9762 9.49999 13.9762C8.31285 13.9762 7.17434 13.5046 6.33491 12.6652C5.49547 11.8257 5.02389 10.6872 5.02389 9.50008C5.02389 8.31294 5.49547 7.17443 6.33491 6.335ZM14.9688 5.69058C15.0718 5.59342 15.1543 5.47658 15.2113 5.34698C15.2683 5.21738 15.2988 5.07765 15.3009 4.93607C15.3029 4.79449 15.2766 4.65393 15.2233 4.52272C15.1701 4.39151 15.0911 4.27232 14.991 4.1722C14.8908 4.07207 14.7716 3.99306 14.6404 3.93982C14.5092 3.88659 14.3687 3.86023 14.2271 3.86229C14.0855 3.86436 13.9458 3.89481 13.8162 3.95184C13.6866 4.00887 13.5697 4.09133 13.4726 4.19433C13.2836 4.39465 13.1802 4.66072 13.1842 4.93607C13.1882 5.21142 13.2993 5.47436 13.4941 5.66908C13.6888 5.8638 13.9517 5.97497 14.2271 5.97898C14.5024 5.983 14.7685 5.87954 14.9688 5.69058Z" fill="#F79E0E"/>
</svg>
